# ProBuilder 5.0.6
# https://unity3d.com/unity/features/worldbuilding/probuilder
# 28/07/2022 08:48:39

mtllib ./OldSafeBox.mtl
o OldSafeBox

g OldSafeBox
v -94.41917 19 63.25931
v -94.41917 19 63.27931
v -93.12083 19 63.25931
v -93.12083 19 63.27931
v -93.12083 23.73262 63.99848
v -94.41917 23.73262 63.99848
v -93.12083 18.97696 64.01466
v -94.41917 18.97696 64.01466
v -93.12083 26.65754 65.93365
v -94.41917 26.65754 65.93365
v -93.12083 18.96558 65.93983
v -94.41917 18.96558 65.93983
v -93.12083 26.65754 68.32566
v -94.41917 26.65754 68.32566
v -93.12083 18.96558 68.31948
v -94.41917 18.96558 68.31948
v -93.12083 23.73262 70.26083
v -94.41917 23.73262 70.26083
v -93.12083 18.97696 70.24465
v -94.41917 18.97696 70.24465
v -93.12083 19 71
v -94.41917 19 71
v -93.12083 19 70.98
v -94.41917 19 70.98

vt 0.950386 0.8022544
vt 0.9499135 0.8022544
vt 0.950386 0.924971
vt 0.9499135 0.924971
vt 0.9329197 0.924971
vt 0.9329197 0.8022544
vt 0.8871921 0.9249709
vt 0.8871921 0.8022544
vt 0.8306699 0.9249709
vt 0.8306699 0.8022543
vt 0.7849424 0.9249709
vt 0.7849424 0.8022535
vt 0.7853248 0.9249709
vt 0.7853248 0.8022535
vt 0.7674762 0.9249709
vt 0.7674762 0.8022535
vt 0.7679487 0.9249709
vt 0.7679487 0.8022535
vt 0.4106956 0.6222942
vt 0.3800176 0.5830098
vt 0.4098657 0.6222942
vt 0.3793458 0.6224855
vt 0.2833242 0.07265714
vt 0.2647493 0.09644262
vt 0.2837308 0.09655844
vt 0.2652519 0.09644262
vt 0.2997 0.5587307
vt 0.2994437 0.6225799
vt 0.3319538 0.0579569
vt 0.332109 0.09661561
vt 0.200423 0.5587307
vt 0.2006794 0.6225799
vt 0.3920633 0.0579569
vt 0.3919079 0.09661561
vt 0.1201054 0.5830098
vt 0.1207772 0.6224856
vt 0.4406928 0.07265714
vt 0.4402862 0.09655845
vt 0.08942741 0.6222942
vt 0.09025729 0.6222942
vt 0.4592676 0.09644262
vt 0.4587651 0.09644262

vn 0 -1 0
vn 1.300163E-08 0.6154889 -0.1576292
vn 1.195702E-08 0.8249553 -0.1130397
vn 8.880246E-11 -0.9999933 -0.0007449291
vn 1.264105E-10 -0.9999806 -0.001253503
vn 3.486914E-09 0.9892476 -0.02925036
vn -3.218344E-09 0.9892476 0.02925035
vn -1.243751E-08 0.8249545 0.1130399
vn -2.600082E-11 -0.9999996 0.0002363118
vn -1.748004E-08 0.6154866 0.1576295
vn -1.400895E-10 -0.9999806 0.001253607
vn -0.05000001 -1.612089E-06 5.960465E-09
vn 0.05000001 0 -5.960465E-09
vn 0 0 0

usemtl ProBuilderDefault
f 3/3/1 4/4/1 2/2/1 1/1/1
f 1/1/2 6/6/3 5/5/3 3/3/2
f 8/6/4 2/2/5 4/4/5 7/5/4
f 6/6/3 10/8/6 9/7/6 5/5/3
f 12/8/1 8/6/4 7/5/4 11/7/1
f 10/8/6 14/10/7 13/9/7 9/7/6
f 16/10/1 12/8/1 11/7/1 15/9/1
f 14/10/7 18/12/8 17/11/8 13/9/7
f 20/14/9 16/10/1 15/9/1 19/13/9
f 18/12/8 22/16/10 21/15/10 17/11/8
f 24/18/11 20/14/11 19/13/11 23/17/11
f 23/17/1 21/15/1 22/16/1 24/18/1
f 2/21/12 8/22/12 6/20/12 1/19/12
f 7/25/14 4/26/12 3/24/14 5/23/13
f 8/22/12 12/28/12 10/27/12 6/20/12
f 11/30/13 7/25/13 5/23/13 9/29/13
f 12/28/12 16/32/12 14/31/12 10/27/12
f 15/34/13 11/30/13 9/29/13 13/33/13
f 16/32/12 20/36/12 18/35/12 14/31/12
f 19/38/13 15/34/13 13/33/13 17/37/13
f 20/36/14 24/40/13 22/39/14 18/35/12
f 23/42/13 19/38/13 17/37/13 21/41/13

