# ProBuilder 5.0.6
# https://unity3d.com/unity/features/worldbuilding/probuilder
# 28/07/2022 10:57:01

mtllib ./OldSafeBox.mtl
o OldSafeBox

g OldSafeBox
v 12.49814 -23.23655 33.67164
v 11.30376 -23.23654 33.67164
v 11.30376 -23.01645 33.67164
v 12.49814 -23.01645 33.67164
v 10.10938 -23.23653 33.67164
v 10.10938 -23.01644 33.67164
v 10.10938 -22.79635 33.67164
v 11.30376 -22.79636 33.67164
v 12.49814 -22.79636 33.67164
v 8.914995 -23.23654 33.67164
v 8.914995 -23.01645 33.67164
v 7.720616 -23.23655 33.67164
v 7.720616 -23.01646 33.67164
v 7.720615 -22.79636 33.67164
v 8.914996 -22.79636 33.67164
v 8.926847 -22.57635 33.67164
v 10.10938 -22.57626 33.67164
v 7.732468 -22.57635 33.67164
v 7.732466 -22.35626 33.67164
v 8.926847 -22.35625 33.67164
v 10.10938 -22.35616 33.67164
v 11.30376 -22.57626 33.67164
v 12.49814 -22.57626 33.67164
v 11.30376 -22.35616 33.67164
v 12.49814 -22.35617 33.67164
v 7.720616 -23.23655 32.23175
v 7.720616 -23.01646 32.23175
v 7.720616 -23.23655 30.79186
v 7.720616 -23.01646 30.79186
v 7.720615 -22.79636 30.79186
v 7.720615 -22.79636 32.23175
v 7.720616 -23.23655 29.35197
v 7.720616 -23.01646 29.35197
v 7.720616 -23.23655 27.91208
v 7.720616 -23.01646 27.91208
v 7.720615 -22.79636 27.91208
v 7.720615 -22.79636 29.35197
v 7.720613 -22.57627 29.35197
v 7.720613 -22.57627 30.79186
v 7.720613 -22.57627 27.91208
v 7.720613 -22.35617 27.91208
v 7.720613 -22.35617 29.35197
v 7.720613 -22.35617 30.79186
v 7.720613 -22.57627 32.23175
v 7.720613 -22.35617 32.23175
v 10.10938 -23.23653 27.91208
v 10.10938 -23.01644 27.91208
v 8.914995 -23.01645 27.91208
v 8.914995 -23.23654 27.91208
v 10.10938 -22.79635 27.91208
v 8.914996 -22.79636 27.91208
v 12.49814 -23.23655 27.91208
v 12.49814 -23.01645 27.91208
v 11.30376 -23.01645 27.91208
v 11.30376 -23.23654 27.91208
v 12.49814 -22.79636 27.91208
v 11.30376 -22.79636 27.91208
v 12.49814 -22.57626 27.91208
v 11.30376 -22.57626 27.91208
v 12.49814 -22.35617 27.91208
v 11.30376 -22.35616 27.91208
v 10.10938 -22.35616 27.91208
v 10.10938 -22.57626 27.91208
v 8.914996 -22.57627 27.91208
v 8.914996 -22.35616 27.91208
v 12.49814 -23.23655 30.79186
v 12.49814 -23.01645 30.79186
v 12.49814 -23.01645 29.35197
v 12.49814 -23.23655 29.35197
v 12.49814 -22.79636 30.79186
v 12.49814 -22.79636 29.35197
v 12.49814 -23.01645 32.23175
v 12.49814 -23.23655 32.23175
v 12.49814 -22.79636 32.23175
v 12.49814 -22.57626 32.23175
v 12.49814 -22.35617 32.23175
v 12.49814 -22.35617 30.79186
v 12.49814 -22.57626 30.79186
v 12.49814 -22.57626 29.35197
v 12.49814 -22.35617 29.35197
v 10.10938 -22.35616 30.79186
v 11.30376 -22.35616 30.79186
v 11.30376 -22.35616 32.23175
v 10.10938 -22.35616 32.23175
v 8.914996 -22.35616 30.79186
v 8.914996 -22.35616 32.23175
v 8.914996 -22.35616 29.35197
v 10.10938 -22.35616 29.35197
v 11.30376 -22.35616 29.35197
v 10.10938 -23.23653 29.35197
v 11.30376 -23.23654 29.35197
v 10.10938 -23.23653 30.79186
v 11.30376 -23.23654 30.79186
v 8.914995 -23.23654 30.79186
v 8.914995 -23.23654 29.35197
v 8.914995 -23.23654 32.23175
v 10.10938 -23.23653 32.23175
v 11.30376 -23.23654 32.23175

vt 0.5223719 0.8690793
vt 0.5744663 0.8690793
vt 0.6265609 0.8690793
vt 0.6786554 0.8690793
vt 0.7307498 0.8690793
vt 0.7307498 0.8062764
vt 0.7307498 0.7434736
vt 0.7307498 0.6806707
vt 0.7307498 0.6178679
vt 0.6265609 0.6178679
vt 0.6786554 0.6178679
vt 0.5223719 0.6178679
vt 0.5744663 0.6178679
vt 0.5223719 0.7434736
vt 0.5223719 0.6806707
vt 0.5223719 0.8062764
vt 0.3700457 0.3751317
vt 0.3229513 0.3751317
vt 0.3229513 0.4319066
vt 0.3700457 0.4319066
vt 0.275857 0.3751317
vt 0.275857 0.4319066
vt 0.275857 0.4886815
vt 0.3229513 0.4886815
vt 0.3700457 0.4886815
vt 0.4642345 0.3751317
vt 0.4171401 0.3751317
vt 0.4171401 0.4319066
vt 0.4642345 0.4319066
vt 0.4171401 0.4886815
vt 0.4642345 0.4886815
vt 0.4642345 0.2615819
vt 0.4171401 0.2615819
vt 0.4171401 0.3183569
vt 0.4642345 0.3183569
vt 0.3700457 0.2615819
vt 0.3700457 0.3183569
vt 0.3229513 0.2615819
vt 0.3229513 0.3183569
vt 0.275857 0.2615819
vt 0.275857 0.3183569
vt 0.2361399 0.6807414
vt 0.2361399 0.7401413
vt 0.2854117 0.7401413
vt 0.2854117 0.6807414
vt 0.2361399 0.7995411
vt 0.2854117 0.7995411
vt 0.3346834 0.7995411
vt 0.3346834 0.7401413
vt 0.3346834 0.6807414
vt 0.1375964 0.7995411
vt 0.1868681 0.7995411
vt 0.1868681 0.7401413
vt 0.1375964 0.7401413
vt 0.1868681 0.6807414
vt 0.1375964 0.6807414
vt 0.1375964 0.9183408
vt 0.1868681 0.9183408
vt 0.1868681 0.858941
vt 0.1375964 0.858941
vt 0.2361399 0.9183408
vt 0.2361399 0.858941
vt 0.2854117 0.858941
vt 0.2854117 0.9183408
vt 0.3346834 0.9183408
vt 0.3346834 0.858941

vn 0 0 1
vn -1 0 0
vn -0.9992592 0.02689164 0.00411182
vn -0.9985183 0.05379194 0.008223641
vn -0.9999661 -4.332909E-06 0.008231763
vn 0 0 -1
vn 1 0 0
vn 0 1 0
vn -6.387726E-06 -1 0

usemtl ProBuilderDefault
f 4/1/1 3/2/1 2/2/1 1/1/1
f 3/2/1 6/3/1 5/3/1 2/2/1
f 8/2/1 7/3/1 6/3/1 3/2/1
f 9/1/1 8/2/1 3/2/1 4/1/1
f 6/3/1 11/4/1 10/4/1 5/3/1
f 11/4/1 13/5/1 12/5/1 10/4/1
f 15/4/1 14/5/1 13/5/1 11/4/1
f 7/3/1 15/4/1 11/4/1 6/3/1
f 17/3/1 16/4/1 15/4/1 7/3/1
f 16/4/1 18/5/1 14/5/1 15/4/1
f 20/4/1 19/5/1 18/5/1 16/4/1
f 21/3/1 20/4/1 16/4/1 17/3/1
f 23/1/1 22/2/1 8/2/1 9/1/1
f 22/2/1 17/3/1 7/3/1 8/2/1
f 24/2/1 21/3/1 17/3/1 22/2/1
f 25/1/1 24/2/1 22/2/1 23/1/1
f 13/5/2 27/6/2 26/6/2 12/5/2
f 27/6/2 29/7/2 28/7/2 26/6/2
f 31/6/2 30/7/2 29/7/2 27/6/2
f 14/5/2 31/6/2 27/6/2 13/5/2
f 29/7/2 33/8/2 32/8/2 28/7/2
f 33/8/2 35/9/2 34/9/2 32/8/2
f 37/8/2 36/9/2 35/9/2 33/8/2
f 30/7/2 37/8/2 33/8/2 29/7/2
f 39/7/2 38/8/2 37/8/2 30/7/2
f 38/8/2 40/9/2 36/9/2 37/8/2
f 42/8/2 41/9/2 40/9/2 38/8/2
f 43/7/2 42/8/2 38/8/2 39/7/2
f 18/5/4 44/6/3 31/6/2 14/5/3
f 44/6/2 39/7/2 30/7/2 31/6/2
f 45/6/2 43/7/2 39/7/2 44/6/2
f 19/5/5 45/6/5 44/6/5 18/5/5
f 47/10/6 46/10/6 49/11/6 48/11/6
f 50/10/6 47/10/6 48/11/6 51/11/6
f 35/9/6 36/9/6 51/11/6 48/11/6
f 49/11/6 34/9/6 35/9/6 48/11/6
f 55/13/6 54/13/6 53/12/6 52/12/6
f 54/13/6 57/13/6 56/12/6 53/12/6
f 47/10/6 50/10/6 57/13/6 54/13/6
f 46/10/6 47/10/6 54/13/6 55/13/6
f 57/13/6 59/13/6 58/12/6 56/12/6
f 59/13/6 61/13/6 60/12/6 58/12/6
f 63/10/6 62/10/6 61/13/6 59/13/6
f 50/10/6 63/10/6 59/13/6 57/13/6
f 63/10/6 50/10/6 51/11/6 64/11/6
f 62/10/6 63/10/6 64/11/6 65/11/6
f 40/9/6 41/9/6 65/11/6 64/11/6
f 51/11/6 36/9/6 40/9/6 64/11/6
f 69/15/7 68/15/7 67/14/7 66/14/7
f 68/15/7 71/15/7 70/14/7 67/14/7
f 53/12/7 56/12/7 71/15/7 68/15/7
f 52/12/7 53/12/7 68/15/7 69/15/7
f 73/16/7 72/16/7 4/1/7 1/1/7
f 72/16/7 74/16/7 9/1/7 4/1/7
f 67/14/7 70/14/7 74/16/7 72/16/7
f 66/14/7 67/14/7 72/16/7 73/16/7
f 74/16/7 75/16/7 23/1/7 9/1/7
f 75/16/7 76/16/7 25/1/7 23/1/7
f 78/14/7 77/14/7 76/16/7 75/16/7
f 70/14/7 78/14/7 75/16/7 74/16/7
f 71/15/7 79/15/7 78/14/7 70/14/7
f 79/15/7 80/15/7 77/14/7 78/14/7
f 58/12/7 60/12/7 80/15/7 79/15/7
f 56/12/7 58/12/7 79/15/7 71/15/7
f 84/20/8 83/19/8 82/18/8 81/17/8
f 83/19/8 76/22/8 77/21/8 82/18/8
f 24/24/8 25/23/8 76/22/8 83/19/8
f 21/25/8 24/24/8 83/19/8 84/20/8
f 45/29/8 86/28/8 85/27/8 43/26/8
f 86/28/8 84/20/8 81/17/8 85/27/8
f 20/30/8 21/25/8 84/20/8 86/28/8
f 19/31/8 20/30/8 86/28/8 45/29/8
f 42/35/8 87/34/8 65/33/8 41/32/8
f 87/34/8 88/37/8 62/36/8 65/33/8
f 85/27/8 81/17/8 88/37/8 87/34/8
f 43/26/8 85/27/8 87/34/8 42/35/8
f 88/37/8 89/39/8 61/38/8 62/36/8
f 89/39/8 80/41/8 60/40/8 61/38/8
f 82/18/8 77/21/8 80/41/8 89/39/8
f 81/17/8 82/18/8 89/39/8 88/37/8
f 55/45/9 91/44/9 90/43/9 46/42/9
f 91/44/9 93/47/9 92/46/9 90/43/9
f 69/49/9 66/48/9 93/47/9 91/44/9
f 52/50/9 69/49/9 91/44/9 55/45/9
f 28/51/9 32/54/9 95/53/9 94/52/9
f 95/53/9 90/43/9 92/46/9 94/52/9
f 46/42/9 90/43/9 95/53/9 49/55/9
f 32/54/9 34/56/9 49/55/9 95/53/9
f 12/57/9 26/60/9 96/59/9 10/58/9
f 96/59/9 97/62/9 5/61/9 10/58/9
f 92/46/9 97/62/9 96/59/9 94/52/9
f 26/60/9 28/51/9 94/52/9 96/59/9
f 93/47/9 98/63/9 97/62/9 92/46/9
f 98/63/9 2/64/9 5/61/9 97/62/9
f 73/66/9 1/65/9 2/64/9 98/63/9
f 66/48/9 73/66/9 98/63/9 93/47/9

