# ProBuilder 5.0.6
# https://unity3d.com/unity/features/worldbuilding/probuilder
# 25/07/2022 12:14:59

mtllib ./Shovel.mtl
o Shovel

g Shovel
v -0.412674 1.092457 1
v -0.587326 1.092457 1
v -0.412674 1.093457 1
v -0.587326 1.093457 1
v -0.587326 1.092457 0
v -0.587326 1.093457 0
v -0.412674 1.092457 0
v -0.412674 1.093457 0
v -0.435545 1.316887 0.7030287
v -0.564455 1.316887 0.7030287
v -0.435545 1.316887 0.2969713
v -0.564455 1.316887 0.2969713
v -0.412674 -0.8857859 0.4351654
v -0.587326 -0.8857859 0.4351654
v -0.412674 -0.8857859 0.5648346
v -0.587326 -0.8857859 0.5648346
v -0.564455 1.22441 0.8690472
v -0.435545 1.22441 0.8690472
v -0.435545 1.22441 0.1309528
v -0.564455 1.22441 0.1309528
v -0.4191093 0.5870335 -0.002757072
v -0.5808907 0.5870335 -0.002757072
v -0.4183121 0.3737178 0.1192198
v -0.5816879 0.3737178 0.1192198
v -0.4178829 0.5862631 1.007231
v -0.4183121 0.3737178 0.8807802
v -0.5808907 0.5870335 1.002757
v -0.5816879 0.3737178 0.8807802
v -0.412674 0.07872283 0.4351654
v -0.587326 0.07872283 0.4351654
v -0.412674 0.07872283 0.5648346
v -0.587326 0.07872283 0.5648346
v -0.5830498 0.6966679 -0.03411484
v -0.5830498 0.6966679 1.034115
v -0.5738201 0.1976204 0.2632761
v -0.4261799 0.1976204 0.2632761
v -0.5738201 0.1976204 0.7367239
v -0.4169502 0.6966679 1.034115
v -0.4261799 0.1976204 0.7367239
v -0.4169502 0.6966679 -0.03411484

vt 0.1746521 1.978243
vt 0 1.978243
vt 0.1746521 1.979243
vt 0 1.979243
vt 1.034115 1.978243
vt 0.03411484 1.978243
vt 1.034115 1.979243
vt 0.03411484 1.979243
vt 0.3124006 0.5022848
vt 0.3969979 0.5022848
vt 0.3124006 0.2358097
vt 0.3969979 0.2358097
vt 0.1330358 0.202787
vt 0.04161632 0.202787
vt 0.1330358 0.2706608
vt 0.04161632 0.2706608
vt 0.6045633 0.7741515
vt 0.6400395 0.7741515
vt 0.609209 0.7885879
vt 0.6353938 0.7885879
vt 0.6912835 0.809674
vt 0.8944085 0.809674
vt 0.7178833 0.8362738
vt 0.8678087 0.8362738
vt 0.1804565 0.809674
vt 0.3835815 0.809674
vt 0.2070563 0.8362738
vt 0.3569817 0.8362738
vt 0.4282665 0.7756874
vt 0.4637427 0.7756874
vt 0.4329122 0.7906498
vt 0.4590971 0.7906498
vt 0.6058705 0.7183229
vt 0.6387323 0.7183229
vt 0.6057085 0.6948069
vt 0.6388943 0.6948069
vt 0.6898147 0.7066502
vt 0.8949685 0.7068067
vt 0.7155 0.663477
vt 0.870192 0.663477
vt 0.1798965 0.7068067
vt 0.3841415 0.7068067
vt 0.204673 0.663477
vt 0.359365 0.663477
vt 0.4295737 0.7178246
vt 0.4626847 0.7177367
vt 0.4294118 0.6934517
vt 0.4625975 0.6934517
vt 0.4083669 0.5726879
vt 0.537277 0.5726879
vt 0.4083669 0.4066694
vt 0.537277 0.4066694
vt 0.8340862 0.8550583
vt 0.7516057 0.8550583
vt 0.3232592 0.8550583
vt 0.2407788 0.8550583
vt 0.384409 0.04474723
vt 0.3249895 0.04474723
vt 0.384409 0.1212714
vt 0.3249895 0.1212714
vt 0.8901597 0.5839799
vt 0.9270004 0.5839799
vt 0.8901597 0.3805289
vt 0.9270004 0.3805289
vt 0.7796764 0.6035561
vt 0.8060155 0.6035561
vt 0.7796764 0.4076403
vt 0.8060155 0.4076403
vt 0.2688495 0.6035561
vt 0.2951885 0.6035561
vt 0.2688495 0.4076403
vt 0.2951885 0.4076403
vt 0.06071887 0.895023
vt 0.1139332 0.895023
vt 0.06071887 0.6011493
vt 0.1139332 0.6011493
vt 0.6843539 0.7290762
vt 0.901338 0.7290762
vt 0.6907234 0.7068067
vt 0.04639196 0.1262312
vt 0.1282601 0.1262312
vt 0.05272287 0.0456581
vt 0.1219292 0.0456581
vt 0.8409305 0.6277072
vt 0.7447614 0.6277072
vt 0.6054319 0.7304092
vt 0.6391709 0.7304092
vt 0.1746521 0.3015585
vt 0 0.3015585
vt 0.1611462 0.4734478
vt 0.01350594 0.4734478
vt 0.1735269 0.7290762
vt 0.3905111 0.7290762
vt 0.1789877 0.7066502
vt 0.3301035 0.6277072
vt 0.2339345 0.6277072
vt 0.4291351 0.7303513
vt 0.4628741 0.7303513
vt 0.4624355 0.7178246
vt 0.6912835 0.8094708
vt 0.8944085 0.8094708
vt 0.6372961 0.6753936
vt 0.6073067 0.6753936
vt 0.1804565 0.8094708
vt 0.3835815 0.8094708
vt 0.4609993 0.6733312
vt 0.4310099 0.6733312

vn 0 0 1
vn -1 0 0
vn 0 0 -1
vn 1 0 0
vn 0 1 0
vn 0 -1 0
vn 0 0.7071068 0.7071068
vn 0.9850888 0.1720465 0
vn -0.9850888 0.1720465 0
vn 0 0.7071068 -0.7071068
vn 0 -0.4963909 -0.8680991
vn 0.9999985 -0.001296098 -0.001215284
vn 0.9999957 0.001220698 -0.0006076419
vn 0.999993 0.003737494 0
vn -0.999993 0.003737494 0
vn -0.02616268 -0.4961473 0.867844
vn -0.01308134 -0.5037193 0.8636258
vn 0 -0.5112913 0.8594075
vn 0 0.8736098 0.4866271
vn 0 0.8736098 -0.4866271
vn -0.9998061 -0.01968999 0
vn 0 -0.8224221 -0.5688777
vn -0.9936101 0.1128672 0
vn 0 -0.274994 0.961446
vn -0.0138867 -0.2556362 0.9663672
vn -0.02777341 -0.2362785 0.9712884
vn 0 -0.8224221 0.5688777
vn 0.9999643 -0.008447638 0
vn 0.9998814 -0.01424455 -0.0006146702
vn 0.9997984 -0.02004145 -0.00122934
vn 0.9936101 0.1128672 0
vn 0 -0.274994 -0.961446
vn -0.9999416 -0.0108038 0
vn 0.9990034 -0.04463423 0
vn -0.9990034 -0.04463423 0
vn 0 0.08587611 0.9963058
vn 0 -0.6331763 0.7740077
vn 0.9999416 -0.0108038 0
vn 0 0.08587611 -0.9963058
vn 0 -0.6331763 -0.7740077

usemtl Shovel
f 3/3/1 4/4/1 2/2/1 1/1/1
f 4/7/2 6/8/2 5/6/2 2/5/2
f 6/3/3 8/4/3 7/2/3 5/1/3
f 8/7/4 3/8/4 1/6/4 7/5/4
f 11/11/5 12/12/5 10/10/5 9/9/5
f 15/15/6 16/16/6 14/14/6 13/13/6
f 18/20/7 17/19/7 4/17/7 3/18/7
f 19/24/8 18/23/8 3/21/8 8/22/8
f 17/28/9 20/27/9 6/25/9 4/26/9
f 20/32/10 19/31/10 8/29/10 6/30/10
f 23/35/11 24/36/11 22/34/11 21/33/11
f 26/39/13 23/40/14 21/38/13 25/37/12
f 24/43/15 28/44/15 27/42/15 22/41/15
f 28/47/17 26/48/18 25/46/17 27/45/16
f 9/51/19 10/52/19 17/50/19 18/49/19
f 11/53/4 9/54/4 18/23/4 19/24/4
f 10/55/2 12/56/2 20/27/2 17/28/2
f 12/59/20 11/60/20 19/58/20 20/57/20
f 13/63/3 14/64/3 30/62/3 29/61/3
f 15/67/4 13/68/4 29/66/4 31/65/4
f 14/71/2 16/72/2 32/70/2 30/69/2
f 16/75/1 15/76/1 31/74/1 32/73/1
f 22/79/21 27/38/21 34/78/21 33/77/21
f 35/82/22 36/83/22 29/81/22 30/80/22
f 37/84/23 35/85/23 30/65/23 32/66/23
f 27/33/25 25/34/26 38/87/25 34/86/24
f 39/90/27 37/91/27 32/89/27 31/88/27
f 25/94/29 21/42/30 40/93/29 38/92/28
f 36/95/31 39/96/31 31/69/31 29/70/31
f 21/45/32 22/99/32 33/98/32 40/97/32
f 33/77/33 34/78/33 2/101/33 5/100/33
f 23/40/34 26/39/34 39/85/34 36/84/34
f 28/44/35 24/43/35 35/96/35 37/95/35
f 34/86/36 38/87/36 1/18/36 2/17/36
f 26/36/37 28/35/37 37/103/37 39/102/37
f 38/92/38 40/93/38 7/105/38 1/104/38
f 40/97/39 33/98/39 5/30/39 7/29/39
f 24/48/40 23/47/40 36/107/40 35/106/40

